<svg xmlns="http://www.w3.org/2000/svg" width="283.28" height="186.33" viewBox="0 0 283.28 186.33">
  <g id="Calque_2" data-name="Calque 2">
        <polygon id="t1" class="cls-1" points="0 58.67 51.19 42.66 56.17 53.51 0 58.67"/>
        <polygon class="cls-1" points="55.91 53.51 70.33 79.83 110.73 58.67 55.91 53.51"/>
        <polygon class="cls-2" points="50.92 42.66 55.91 53.51 110.73 58.67 50.92 42.66"/>
        <polygon class="cls-3" points="0 58.67 51.19 42.66 10.71 51.12 0 58.67"/>
        <polygon class="cls-4" points="51.19 42.66 110.73 58.67 129.5 45.86 51.19 42.66"/>
        <polygon class="cls-5" points="52.28 42.66 129.5 45.86 81.09 39.73 52.28 42.66"/>
        <polygon class="cls-2" points="56.17 53.51 52 89.33 0 58.67 56.17 53.51"/>
        <polygon class="cls-3" points="52 89.33 70.3 79.78 55.91 53.51 52 89.33"/>
        <polygon class="cls-2" points="52 89.33 87.58 116.42 111 58.52 52 89.33"/>
        <polygon class="cls-3" points="110.73 58.67 96.4 94.62 135.06 85.56 110.73 58.67"/>
        <polygon class="cls-7" points="87.58 116.42 66.59 136.42 64.84 99.1 87.58 116.42"/>
        <polygon class="cls-8" points="66.59 136.42 61.15 161 91.08 143.67 66.59 136.42"/>
        <polygon class="cls-8" points="61.15 161 47.67 186.33 63.58 175.42 61.15 161"/>
        <polygon class="cls-9" points="47.67 186.33 66.59 179.84 63.58 175.42 47.67 186.33"/>
        <polygon class="cls-2" points="61.15 161 63.58 175.42 81.02 169.35 61.15 161"/>
        <polygon class="cls-10" points="63.58 175.42 66.59 179.84 81.02 169.35 63.58 175.42"/>
        <polygon class="cls-1" points="61.15 161 81.02 169.35 91.08 143.67 61.15 161"/>
        <polygon class="cls-3" points="81.02 169.35 102.5 141.35 91.08 143.67 81.02 169.35"/>
        <polygon class="cls-5" points="102.5 141.35 126.83 109.49 104.74 92.43 102.5 141.35"/>
        <polygon class="cls-11" points="66.59 136.42 91.08 143.67 87.58 116.42 66.59 136.42"/>
        <polygon class="cls-12" points="104.74 92.43 102.5 141.35 87.58 116.42 104.74 92.43"/>
        <polygon class="cls-9" points="91.08 143.67 102.5 141.35 87.58 116.42 91.08 143.67"/>
        <polygon class="cls-1" points="87.58 116.42 104.74 92.43 96.59 94.16 87.58 116.42"/>
        <polygon class="cls-13" points="104.74 92.43 126.83 109.49 153.33 92.67 104.74 92.43"/>
        <polygon class="cls-14" points="153.33 92.67 147.83 82.67 104.74 92.43 153.33 92.67"/>
        <polygon class="cls-5" points="147.83 82.67 191.73 50.97 232.65 100.99 147.83 82.67"/>
        <polygon class="cls-4" points="147.83 82.67 153.33 92.67 232.65 100.99 147.83 82.67"/>
        <polygon class="cls-13" points="129.5 45.86 147.83 82.67 191.73 50.97 129.5 45.86"/>
        <polygon class="cls-14" points="129.5 45.86 135.06 85.56 110.73 58.67 129.5 45.86"/>
        <polygon class="cls-4" points="129.5 45.86 135.06 85.56 147.83 82.67 129.5 45.86"/>
        <polygon class="cls-11" points="141.07 46.81 191.73 50.97 206.33 23.33 141.07 46.81"/>
        <polygon class="cls-2" points="232.65 100.99 283.28 38.5 191.73 50.97 232.65 100.99"/>
        <polygon class="cls-3" points="232.65 100.99 283.28 106.67 283.28 38.5 232.65 100.99"/>
        <polygon class="cls-8" points="191.73 50.97 283.28 38.5 206.33 23.33 191.73 50.97"/>
        <polygon class="cls-7" points="206.33 23.33 243.37 17.89 252.91 32.51 206.33 23.33"/>
        <polygon class="cls-11" points="243.37 17.89 283.28 38.5 283.28 12 243.37 17.89"/>
        <polygon class="cls-9" points="243.37 17.89 252.91 32.51 283.28 38.5 243.37 17.89"/>
        <polygon class="cls-5" points="243.37 17.89 248.33 0.17 265.59 14.61 243.37 17.89"/>
        <polygon class="cls-4" points="273.63 13.42 265.59 14.61 258.16 5.65 273.63 13.42"/>
        <polygon class="cls-14" points="248.33 0.17 265.59 14.61 254.65 1.42 248.33 0.17"/>
        <polygon class="cls-13" points="245.74 9.34 240 0 248.33 0.17 245.74 9.34"/>
  </g>
</svg>
