<svg xmlns="http://www.w3.org/2000/svg" width="421.54" height="214.36" viewBox="0 0 421.54 214.36">
  <g id="Calque_22" data-name="Calque 22">
      <polygon class="cls-1" points="12.25 70.88 63.44 54.87 68.42 65.72 12.25 70.88"/>
      <polygon class="cls-1" points="214.2 69.36 228.63 95.69 269.03 74.52 214.2 69.36"/>
      <polygon class="cls-2" points="184.02 36.64 189.01 47.49 243.83 52.65 184.02 36.64"/>
      <polygon class="cls-3" points="162.74 35.86 213.92 19.85 173.44 28.32 162.74 35.86"/>
      <polygon class="cls-4" points="68.95 64.39 128.49 80.39 147.26 67.58 68.95 64.39"/>
      <polygon class="cls-5" points="224.43 64.25 301.65 67.45 253.24 61.32 224.43 64.25"/>
      <polygon class="cls-2" points="66.64 85.61 62.47 121.44 10.47 90.77 66.64 85.61"/>
      <path class="cls-6" d="M170.59,72.39"/>
      <polygon class="cls-3" points="62.3 61.97 80.6 52.41 66.2 26.14 62.3 61.97"/>
      <polygon class="cls-2" points="99 110.14 134.58 137.23 157.99 79.34 99 110.14"/>
      <polygon class="cls-3" points="131.08 23.86 116.75 59.82 155.41 50.75 131.08 23.86"/>
      <polygon class="cls-7" points="73.85 138.75 52.85 158.75 51.1 121.44 73.85 138.75"/>
      <polygon class="cls-8" points="43.99 70.23 38.55 94.82 68.49 77.48 43.99 70.23"/>
      <polygon class="cls-8" points="221.59 189.03 208.1 214.36 224.02 203.44 221.59 189.03"/>
      <polygon class="cls-9" points="109.57 100.28 128.5 93.78 125.49 89.36 109.57 100.28"/>
      <polygon class="cls-2" points="90.08 44.34 92.52 58.76 109.96 52.7 90.08 44.34"/>
      <polygon class="cls-10" points="29.83 108.5 32.84 112.93 47.27 102.44 29.83 108.5"/>
      <polygon class="cls-1" points="86.01 124.77 105.89 133.12 115.95 107.44 86.01 124.77"/>
      <polygon class="cls-3" points="271.94 159.9 293.41 131.9 282 134.21 271.94 159.9"/>
      <polygon class="cls-5" points="164 189.03 188.33 157.16 166.24 140.1 164 189.03"/>
      <polygon class="cls-11" points="0 50.5 24.5 57.75 21 30.5 0 50.5"/>
      <polygon class="cls-12" points="283.23 13.95 280.99 62.88 266.07 37.94 283.23 13.95"/>
      <polygon class="cls-9" points="249.38 159.52 260.8 157.21 245.88 132.27 249.38 159.52"/>
      <polygon class="cls-1" points="245.88 132.27 263.04 108.28 254.89 110.01 245.88 132.27"/>
      <polygon class="cls-13" points="68.95 2.08 91.04 19.15 117.54 2.33 68.95 2.08"/>
      <polygon class="cls-14" points="68.13 148.29 62.63 138.29 19.54 148.05 68.13 148.29"/>
      <polygon class="cls-5" points="154.68 114.97 198.58 83.28 239.5 133.29 154.68 114.97"/>
      <polygon class="cls-4" points="306.13 98.52 311.63 108.52 390.95 116.84 306.13 98.52"/>
      <polygon class="cls-13" points="131.62 51.17 149.96 87.98 193.85 56.29 131.62 51.17"/>
      <polygon class="cls-14" points="241.82 0 247.38 39.7 223.05 12.81 241.82 0"/>
      <polygon class="cls-4" points="1.3 75.84 6.86 115.54 19.63 112.65 1.3 75.84"/>
      <polygon class="cls-11" points="105.32 152.19 155.98 156.35 170.59 128.71 105.32 152.19"/>
      <polygon class="cls-2" points="311.97 88.99 362.61 26.5 271.05 38.98 311.97 88.99"/>
      <polygon class="cls-3" points="50.31 111.68 100.94 117.36 100.94 49.19 50.31 111.68"/>
      <polygon class="cls-8" points="153.17 101.8 244.73 89.33 167.78 74.16 153.17 101.8"/>
      <polygon class="cls-7" points="182.81 144.03 219.84 138.59 229.39 153.21 182.81 144.03"/>
      <polygon class="cls-11" points="381.63 131.23 421.54 151.84 421.54 125.34 381.63 131.23"/>
      <polygon class="cls-9" points="162.85 50.42 172.4 65.04 202.77 71.03 162.85 50.42"/>
      <polygon class="cls-5" points="269.41 96.84 274.37 79.12 291.63 93.56 269.41 96.84"/>
      <polygon class="cls-4" points="317.4 47.69 309.35 48.87 301.93 39.91 317.4 47.69"/>
      <polygon class="cls-14" points="158.07 6.73 175.33 21.17 164.4 7.98 158.07 6.73"/>
      <polygon class="cls-13" points="395.57 38.41 389.83 29.08 398.16 29.25 395.57 38.41"/>
  </g>
</svg>
