<svg xmlns="http://www.w3.org/2000/svg" width="231.77" height="142.85" viewBox="0 0 231.77 142.85">
  <g id="Calque_2" data-name="Calque 2">
        <polygon class="cls-1" points="26.53 31.18 58.8 14.17 77.47 66.02 26.53 31.18"/>
        <polygon class="cls-2" points="205.11 37.12 178.11 14.17 160.57 39.82 205.11 37.12"/>
        <polygon class="cls-3" points="134.22 93.83 103.74 37.53 177.88 0 134.22 93.83"/>
        <polygon class="cls-4" points="94.85 42.76 74.28 26.99 49.93 58.53 94.85 42.76"/>
        <polygon class="cls-5" points="92.49 93.2 35.21 131.32 35.21 55.28 92.49 93.2"/>
        <polygon class="cls-6" points="231.77 68.05 206.64 72.37 213.51 49.33 231.77 68.05"/>
        <polygon class="cls-7" points="127.03 42.76 80.44 69.66 114.9 100.78 127.03 42.76"/>
        <polygon class="cls-7" points="136.49 61.16 165.3 74.73 163.85 53.94 136.49 61.16"/>
        <polygon class="cls-8" points="95.88 119.79 80.62 142.85 66.87 121.32 95.88 119.79"/>
        <polygon class="cls-9" points="0 85.13 17.22 46.91 44.77 84.36 0 85.13"/>
        <polygon class="cls-1" points="172.93 130.99 179.88 137.66 182.84 124.98 172.93 130.99"/>
  </g>
</svg>
