<svg xmlns="http://www.w3.org/2000/svg" width="284.05" height="187.2" data-name="Calque 42" viewBox="0 0 284.05 187.2">
  <g stroke="#000" stroke-miterlimit="10">
    <path fill="#fff" stroke-width=".5" d="M.47 59.21s38.67 10.33 52 30.67a46.47 46.47 0 0 0 13.33 7s-3 13.67 0 26.67 1.67 34.67-17.67 63.33a63.4 63.4 0 0 0 37.67-21.67c15.67-19 22.33-40 40-54s28-18 28-18 60.67 6.67 73.33 7.67 32 5.67 42.33 5.67 14.28.67 14.28.67V12.55l-51.95 7.67-12.67 2.67-12.33 1s-20.67 3.33-67.67 23.67c0 0-59-8-85.67-4.67.02-.01-44.65 7.66-52.98 16.32z"/>
    <path fill="#fff" stroke-width=".5" d="M274.1 13.97s-10-.76-14.3-5.09-7.33-10-19.33-8.33c0 0 6.33 5.33 6 9.33a28 28 0 0 1-2.63 8.56z"/>
    <path fill="none" stroke-width=".5" d="M153.8 93.21s-16.75-1-26.5-3.75m-61.5 7.42s6 4.17 22 0 53-10.42 60.5-13.67 38.5-25.75 40.75-28.25l2.25-2.5s12.17-4.33-52.17-4.92"/>
    <path fill="none" stroke-width=".5" d="M16.26 57.05s30.45-5.34 57-1.84 64.53 6.5 80.53 4"/>
    <path fill="none" stroke-width=".25" d="M.47 59.22l16.54-2.29L37.3 75.55l19.35-21.5 14.16 26.33-32.51-4.16 8.9 7.27 5.27 6.39 59-30.81-34 4.15"/>
    <path fill="none" stroke-width=".25" d="M77.47 63.22l-6.69 17.1-14.13-26.27 20.82 9.17zm-6.69 17.1l8.03 18.22 24.16-18.22 24.34 9.15m26.5-30.25l18-1.34 20.39-6.36-3.56 3.85-4.84 3.85"/>
    <path fill="none" stroke-width=".25" d="M188.64 55.37l-3.5-1.35-2.56 6.12-5.94-.92-11.77 13.62-11.06-13.62-8.92 10.83-6-9.91-4.42 6.08-10.5-6.42"/>
    <path fill="none" stroke-width=".25" d="M176.64 59.22l-4.83-1.34-.34 7.32-17.45-5.72m17.45 5.72l8.42-3.06m-76.92 18.18l-32.16.06 21.45-11.27 10.71 11.21zm8.23-21.1l-8.23 21.1 15.67-5.19 6.94 13.68 9.39-6.18 9.28 1.92 8.14-7.58 7.29-.61 1.64-7.89"/>
    <path fill="none" stroke-width=".25" d="M118.64 75.13l-11.85-4.6 17.18-10.73-5.33 15.33z"/>
    <path fill="none" stroke-width=".25" d="M134.97 82.63l-10.7 3.6 5.7-9.93-11.33-1.17 15.83-8.91"/>
    <path fill="none" stroke-width=".25" d="M134.97 82.97l9.92-12.92-14.92 6.25"/>
    <path fill="none" stroke-width=".25" d="M144.89 70.05l7.5 6.92-8.14 7.58.64-14.5-10.42-3.83-4.5 10.08 5 6.33"/>
    <path fill="none" stroke-width=".25" d="M161.32 68.47l-8.93 8.5-7.5-6.92 8.92-3.83v-7"/>
    <path fill="none" stroke-width=".25" d="M153.81 66.22l7.51 2.25-7.3-8.99-.21 6.74zm-8.92 3.83l7.5 6.92 1.42-10.75m-1.42 10.74l-3.04 6m-14.38-.33l.64 4.04"/>
    <path fill="none" stroke-width=".25" d="M.47 59.22l16.54-2.29 3.41-6.55 4.57 5.44 16.32-7.44 15.34 5.67 7.66-6.5 3.81 7.1 22.9-11.45 20.18 16.02 6.11-5.2 6.66 5.78 8.18-4.43 6.74 4.77 7.75-3.06 7.38 2.4 11.31-5.43 6.48 3.83 4.83-4.5 8.5.64 3.5-3.95"/>
    <path fill="none" stroke-width=".25" d="M24.99 55.82l5.15-8.27 11.17.83 12.16-5.5 3.18 11.17 14.13-11.84-2.66 12.44m78.52 2.43l-3.67-3.06-4.08 6.12-6.74-4.77-8.18 4.43 6-13.39-12.66 7.61-3.32-9.34-8 4.69 5.48 10.43M70.78 42.21l8.6 6.81"/>
    <path fill="none" stroke-width=".25" d="M117.31 54.02L91.02 43.2l-8.54 13.15 16.83-6.57m32.84 5.59l-2.18-8.96 13 7.61 7.9-6.31 2.94 11.51 17.66-8.38 5.17 2.54 12-3.31m-37.77-2.36l14.46 6.34"/>
    <path fill="none" stroke-width=".25" d="M171.47 50.84l4.21-2.2.96 4.74m-11.31.67v-5.93l6.14 2.72M99.89 94.09l3.08-13.77 7.19 11.64 5.22-6.97 3.26-9.86m8.67 34.91l-1.73-21.23 10.03-2.14 1.82 4.67 16.38 1.88-5.5-10"/>
    <path fill="none" stroke-width=".25" d="M65.81 96.88l22.25 20.09 17.15-24 22.1 17.07 7.66-11.5 18.84-5.32-16.38-1.88m-89.29 95.54l15.92-10.91 17.44-6.07 10.06-25.68 15.23-10.63-1.98-18.62 22.5-4.93"/>
    <path fill="none" stroke-width=".25" d="M64.06 175.97l-8.74-.86 6.3-13.56 2.44 14.42zm17.44-6.07l-19.88-8.35 29.94-17.33-24.5-7.25 21-20-23.58-6.93m14.33-11.5l9.25 18.43 4.75-15.25 12.4-8.75m-12.4 8.74l-14-3.17m26 16.43l-16.75 2 17.15-24-.4 22zm1.98 18.62l-18.73-16.62 3.5 27.25 10.17-2.46m3.08-26.8l14.67 2m15.49-18.42l-9.39-9.73 11.85 2.53-2.46 7.2zm13.34-15.33l-10.88 8.13m16.38 1.88l5.87-16.86 2.88 2.11 2.31-5.63 19.69 3.67-5.55-13.72 8.3-.65 1.75-7.17 4.5 2.91-1.36-6.36m-41.33-3.81l-4.23-3.36 7.38-3.04-3.15 6.4zm3.15-6.4l11.31 6.81 3.07-6.81 20.24 8.76 18.17-26.19-25.25 13.1-4.92-4.28"/>
    <path fill="none" stroke-width=".25" d="M176.64 32.7l-8.24 8.61h-14.38m34.62 8.76l-7.08-13.09-13.16 4.33m38.41-17.43l17.75 18.33 19.28-23.77 14.72 8.52 14.45-12.83 10.74 6.33M153.81 93.22l30.75-16.71-4.15 19.59-26.6-2.88z"/>
    <path fill="none" stroke-width=".25" d="M180.41 96.1l-8.91-12.5-7.44 10.49-6.5-2.75-3.26 1.61m3.26-1.61l.47 2.34"/>
    <path fill="none" stroke-width=".25" d="M180.2 95.81l-9.52-4.47.82-7.74"/>
    <path fill="none" stroke-width=".25" d="M170.68 91.34l-6.37 2.75-.48-.09-.32-6.06 3.85 1.49m-19.05-6.21l8.51 1.33.74 6.79 5.95-3.4"/>
    <path fill="none" stroke-width=".25" d="M163.51 87.94l-6.69-3.39 5.74-6.08.95 9.47zm-.95-9.47l8.94 5.13-6.63-10.76m14.14-10.05l-4.45 7.26-9.23 2.79 6.84-4.75"/>
    <path fill="none" stroke-width=".25" d="M172.17 68.09l2.39 1.96-1.2 4.37 8.69-4.1m0 0l-7.49-.27m-1.2 4.37l-1.86 9.18m13.06-7.09l17.69 21.91 14.72-18.04 16.15 21.16 28.02-33.72 22.61 20.12m-96.44-25.8l-2.75 14.37 18.58-14.37h-15.83zm6.25-4.26l-6.25 4.26m-5.75-25.16l8.87 10.51m16.38-23.61l-2.16 21.41-12.45 6.23-1.77-4.03 34.13-5.28"/>
    <path fill="none" stroke-width=".25" d="M193.56 57.88l11.09-12.59-1.51 16.85-9.58-4.26zm11.09-12.59l18.16 13.93 1.75-17.01 34-15.25"/>
    <path fill="none" stroke-width=".25" d="M224.56 42.21l-5.42-19.33 18.89 2.72 5.81-7.16m29.17-4.31v22.88l10.74-16.55v18.59l-22.61 28.77 22.61 5.02"/>
    <path fill="none" stroke-width=".25" d="M261.14 67.82l-2.58-40.86 14.45 10.05 10.74 2.04-22.61 28.77z"/>
    <path fill="none" stroke-width=".25" d="M273.01 37.01l-11.87 30.81 12.97-5.68 9.64 10.7m-80.61-10.7l19.67-2.93m-42.4 36.89l11.79-1.22 10.05 3.54m.89-36.28l13.83 18.24-16.16-5 1.44 23.04-17.32-21.45 7.27 17.91"/>
    <path fill="none" stroke-width=".25" d="M187.31 62.14l4.02 9.13-6.77 5.24 16.25-1.13 2.82-12.59m19.18-3.57l-5.84 21.16 20.96-20.9-15.12-.26zm-8.63 40.43l2.79-4.77m20.96-35.4l-13.37-17.27 13.37-6v23.27z"/>
    <path fill="none" stroke-width=".25" d="M202.25 98.42l14.72-3.54v-14.5l44.17-12.56-23.21-8.34 23.21 8.34-23.21-31.61 12.63 6m8-15.25l-8 15.25 10.58 25.61m12.97-5.68l9.64-23.09v14.66l-9.64 8.43zm-36.18-25.93l5.91-17.77m39.91 69.5l-17.69 18.47V87.94h17.69z"/>
    <path fill="none" stroke-width=".25" d="M233.12 101.54l32.94-13.6-4.92-20.12m-23.21-8.34l2.54 14.22-7.35 27.84-16.15-6.66m29.5-85l5.07 7.42 9.45-7.42 5.07 5.28"/>
    <path fill="none" stroke-width=".25" d="M246.97 10.61l14.02-.73-5.86-5.82-8.16 6.55z"/>
    <path fill="none" stroke-width=".25" d="M240.47.55h8.34l-1.84 10.06-1.69-4.57m3.53-5.49l-4.17 4.51"/>
    <path fill="none" stroke-width=".25" d="M255.13 4.06h-4.57l-3.59 6.55m3.59-6.55L248.81.72m-3.84 3.98l-.33-2.73-3.42-1.25 3.75 3.98zm-.33-2.73l3.61-.82-.25-.6-2.02-.25-1.34 1.67z"/>
  </g>
</svg>
