<svg xmlns="http://www.w3.org/2000/svg" xmlns:xlink="http://www.w3.org/1999/xlink" width="989.88" height="541.38" viewBox="0 0 989.88 541.38">
  <defs>
    <style>
      .cls-1, .cls-50, .cls-51 {
        fill: none;
      }

      .cls-2 {
        fill: #ea6565;
      }

      .cls-3 {
        fill: #600094;
      }

      .cls-4 {
        fill: #932288;
      }

      .cls-5 {
        fill: #a62f83;
      }

      .cls-6 {
        fill: #871a8b;
      }

      .cls-7 {
        fill: #ad3482;
      }

      .cls-8 {
        fill: #9c2886;
      }

      .cls-9 {
        fill: #992686;
      }

      .cls-10 {
        fill: #c3427c;
      }

      .cls-11 {
        fill: #b63a7f;
      }

      .cls-12 {
        fill: #ae3481;
      }

      .cls-13 {
        fill: #c8467b;
      }

      .cls-14 {
        fill: #540389;
      }

      .cls-15 {
        fill: #610194;
      }

      .cls-16 {
        fill: #7f187d;
      }

      .cls-17 {
        fill: #721499;
      }

      .cls-18 {
        fill: #902089;
      }

      .cls-19 {
        fill: #982587;
      }

      .cls-20 {
        fill: #86198b;
      }

      .cls-21 {
        fill: #b03581;
      }

      .cls-22 {
        fill: #9b2786;
      }

      .cls-23 {
        fill: #8c1d89;
      }

      .cls-24 {
        fill: #b13681;
      }

      .cls-25 {
        fill: #b73777;
      }

      .cls-26 {
        fill: #b53980;
      }

      .cls-27 {
        fill: #d14b79;
      }

      .cls-28 {
        fill: #b33780;
      }

      .cls-29 {
        fill: url(#Dégradé_sans_nom_49);
      }

      .cls-30 {
        fill: url(#Dégradé_sans_nom_49-2);
      }

      .cls-31 {
        fill: url(#Dégradé_sans_nom_49-3);
      }

      .cls-32 {
        fill: url(#Dégradé_sans_nom_49-4);
      }

      .cls-33 {
        fill: url(#Dégradé_sans_nom_49-5);
      }

      .cls-34 {
        fill: url(#Dégradé_sans_nom_49-6);
      }

      .cls-35 {
        fill: url(#Dégradé_sans_nom_49-7);
      }

      .cls-36 {
        fill: url(#Dégradé_sans_nom_49-8);
      }

      .cls-37 {
        fill: url(#Dégradé_sans_nom_49-9);
      }

      .cls-38 {
        fill: url(#Dégradé_sans_nom_49-10);
      }

      .cls-39 {
        fill: url(#Dégradé_sans_nom_49-11);
      }

      .cls-40 {
        fill: #592875;
      }

      .cls-41 {
        fill: #fff;
      }

      .cls-42 {
        fill: #f2d679;
      }

      .cls-43 {
        opacity: 0.35;
      }

      .cls-44 {
        fill: #dddcd9;
      }

      .cls-45 {
        fill: #ddbb5e;
      }

      .cls-46 {
        fill: #f4da9a;
      }

      .cls-47 {
        fill: #e5bb45;
      }

      .cls-48 {
        fill: #0d2644;
      }

      .cls-49 {
        fill: #f2ac57;
      }

      .cls-50, .cls-51 {
        stroke: #fff;
        stroke-linecap: round;
        stroke-linejoin: round;
      }

      .cls-51 {
        stroke-width: 0.5px;
      }

      .cls-52 {
        fill: #f76d59;
      }

      .cls-53 {
        fill: #f7f5ef;
      }

      .cls-54 {
        fill: #4523af;
      }

      .cls-55 {
        fill: #7049e8;
      }

      .cls-56 {
        fill: #ea6363;
      }
    </style>
    <linearGradient id="Dégradé_sans_nom_49" data-name="Dégradé sans nom 49" x1="193.44" y1="131.35" x2="474.44" y2="38.35" gradientUnits="userSpaceOnUse">
      <stop offset="0" stop-color="#ff6a6e"/>
      <stop offset="0.12" stop-color="#f66470"/>
      <stop offset="0.32" stop-color="#dc5376"/>
      <stop offset="0.58" stop-color="#b33780"/>
      <stop offset="0.88" stop-color="#7a118e"/>
      <stop offset="1" stop-color="#600094"/>
    </linearGradient>
    <linearGradient id="Dégradé_sans_nom_49-2" x1="191.58" y1="125.72" x2="472.58" y2="32.72" xlink:href="#Dégradé_sans_nom_49"/>
    <linearGradient id="Dégradé_sans_nom_49-3" x1="197.48" y1="143.56" x2="478.48" y2="50.56" xlink:href="#Dégradé_sans_nom_49"/>
    <linearGradient id="Dégradé_sans_nom_49-4" x1="188.07" y1="115.1" x2="469.07" y2="22.1" xlink:href="#Dégradé_sans_nom_49"/>
    <linearGradient id="Dégradé_sans_nom_49-5" x1="195.47" y1="137.46" x2="476.47" y2="44.46" xlink:href="#Dégradé_sans_nom_49"/>
    <linearGradient id="Dégradé_sans_nom_49-6" x1="189.84" y1="120.44" x2="470.84" y2="27.44" xlink:href="#Dégradé_sans_nom_49"/>
    <linearGradient id="Dégradé_sans_nom_49-7" x1="182.67" y1="98.78" x2="463.67" y2="5.78" xlink:href="#Dégradé_sans_nom_49"/>
    <linearGradient id="Dégradé_sans_nom_49-8" x1="186.29" y1="109.74" x2="467.29" y2="16.74" xlink:href="#Dégradé_sans_nom_49"/>
    <linearGradient id="Dégradé_sans_nom_49-9" x1="178.63" y1="86.58" x2="459.63" y2="-6.42" xlink:href="#Dégradé_sans_nom_49"/>
    <linearGradient id="Dégradé_sans_nom_49-10" x1="180.64" y1="92.67" x2="461.64" y2="-0.33" xlink:href="#Dégradé_sans_nom_49"/>
    <linearGradient id="Dégradé_sans_nom_49-11" x1="184.55" y1="104.47" x2="465.55" y2="11.47" xlink:href="#Dégradé_sans_nom_49"/>
  </defs>
  <title>illu_device</title>
  <g id="Calque_2" data-name="Calque 2">
    <g id="hole">
      <g>
        <path class="cls-1" d="M374.44,485.77a3.75,3.75,0,0,1-.26,1.38l0,.09v-3A4.45,4.45,0,0,1,374.44,485.77Z"/>
        <path class="cls-1" d="M513,500.69v3.37A4.71,4.71,0,0,1,513,500.69Z"/>
        <path d="M602.45,481c-5.6,7.07-15.84,7.88-24.85,8.11l-25,.63c-4.21.11-8.5.25-12.74.62-7.32.81-16.68,2.7-23,6.42-1.63,1-3.27,2.16-3.93,3.94a4.71,4.71,0,0,0,0,3.37v36.36c-6,.43-15.07.82-21.06,1v-.09h0v.09c-3,0-10.06,0-13.08,0-12.84,0-25.74-.23-38.56-1v-.06l-2.07-.08c-1.08-.08-2.16-.15-3.24-.25-8.42-.65-16.81-1.61-25.12-3V506.78L379,499.33a16.53,16.53,0,0,1-4.88-2V487.24l0-.09a3.75,3.75,0,0,0,.26-1.38,4.45,4.45,0,0,0-.3-1.56,10.34,10.34,0,0,0-3.56-4.23c-11.71-8.72-27-10.54-40.84-15.07-2.85-.93-6.24-4.1-4.11-6.21a4.52,4.52,0,0,1,2.5-1c39.29-6.7,81.78-7.48,121.62-5.53v.12c11.5.6,37.7,2.45,49.19,3.41l-.09.63c11.88,1,28,2.18,38.66,3.34l0,.31q7.21.78,14.41,1.59l-8.61-1.3a124.82,124.82,0,0,1,55.29,10.3c2.42,1.06,5.09,2.55,5.59,5.14C604.56,477.59,603.63,479.48,602.45,481Z"/>
        <path class="cls-2" d="M409.85,506.78V537c-7-1.14-14-2.55-20.86-4.34-3.46-.9-7.8-3.62-6.34-6.89a5.48,5.48,0,0,1,2-2.1C393.07,517.57,406.57,516.65,409.85,506.78Z"/>
        <path class="cls-2" d="M543.11,522l-.25-.14h0Z"/>
        <path class="cls-2" d="M544.28,535.93A244.88,244.88,0,0,1,513,540.42V504.06c1.11,3,5,5.45,8.38,6.87a231.85,231.85,0,0,1,21.51,10.88l.25.14q2.28,1.35,4.52,2.76c1.38.88,2.83,1.87,3.42,3.39C552.48,531.79,548.27,534.69,544.28,535.93Z"/>
        <path class="cls-2" d="M374.14,487.24V497.3c-2.35-1.49-4-3.57-2.94-6C371.85,489.76,373.48,488.78,374.14,487.24Z"/>
        <polygon class="cls-2" points="374.13 484.21 374.13 484.21 374.13 484.21 374.13 484.21"/>
      </g>
    </g>
    <g id="forme_right">
      <path class="cls-2" d="M307.14,206.44c-12.81-4.64-51-8.92-63.8-13.56-8.3-3-16.8-6-25.55-5.88s-17.95,4.17-22.4,12.34c-6.53,12-.74,27.36,6.41,38.94,2.54,4.12,5.32,8.26,6.26,13.11s-.55,10.68-4.67,12.83c-2.32,1.21-5,1.07-7.57.63-9.71-1.68-18.41-7.26-27.27-11.9s-18.73-8.5-28.37-6.42-18.38,12.21-16.34,22.65c1.54,7.87,8.17,13.07,13.73,18.39s10.8,13.21,8.36,20.81c-1.67,5.21-6.46,8.43-9.19,13.09-6,10.29.36,25,10.46,30.31s22.15,3.49,32.86-.16,21-9,32.16-10.63c15.74-2.27,32.32,3.12,47.33-2.48,15.91-5.93,42.92-7.93,46.41-25.79s7-49.13,4.72-67.22c-1.57-12.57-2-26.5-3.55-39.06"/>
    </g>
    <g id="forme_left">
      <path class="cls-2" d="M734.61,246.81c17.51-6,71.88-28.16,91.73-33.87,10.6-3,18.91-5.08,30.83-.75,11.2,4.07,24.1,14.93,30.19,25.47,8.93,15.47,1,35.28-8.76,50.2-3.48,5.31-7.27,10.65-8.56,16.91s.75,13.77,6.38,16.54c3.17,1.56,6.88,1.38,10.35.81,13.28-2.17,25.16-9.36,37.27-15.35s25.6-11,38.79-8.27,25.13,15.74,22.33,29.21c-2.11,10.14-11.18,16.85-18.77,23.72s-14.76,17-11.43,26.83c2.28,6.72,8.83,10.87,12.56,16.88,8.22,13.26-.49,32.22-14.29,39.07s-30.28,4.5-44.92-.21-28.75-11.64-44-13.71c-21.51-2.93-44.18,4-64.71-3.19-21.74-7.65-58.67-10.23-63.44-33.25s-9.55-63.35-6.46-86.67c2.15-16.2,2.71-34.17,4.86-50.37"/>
    </g>
    <g id="moutain_right">
      <g>
        <polygon class="cls-3" points="183 347.03 159 330.68 131.11 375.81 183 347.03"/>
        <path class="cls-4" d="M183,403.48c0-.21-30.69-39.43-30.69-39.43L183,347Z"/>
        <polygon class="cls-5" points="152.31 364.05 136.67 403.48 164.54 379.7 152.31 364.05"/>
        <polygon class="cls-6" points="116 368.2 131.11 375.81 117.66 425.11 116 368.2"/>
        <polygon class="cls-7" points="131.11 375.81 117.66 425.11 149.34 392.67 131.11 375.81"/>
        <polygon class="cls-8" points="131.11 375.81 142.75 388.14 152.31 364.05 131.11 375.81"/>
        <polygon class="cls-9" points="117.13 407.15 93 395.54 116 368.2 117.13 407.15"/>
        <polygon class="cls-10" points="0 446.8 26 422.95 84 446.8 0 446.8"/>
        <polygon class="cls-8" points="26 422.95 56 372.04 84 446.8 26 422.95"/>
        <polygon class="cls-3" points="56 372.04 93 395.54 84.62 443.27 84 446.8 56 372.04"/>
        <polygon class="cls-11" points="93 395.54 84 446.8 117.66 425.11 93 395.54"/>
        <polygon class="cls-12" points="93 395.54 117.66 425.11 117.13 407.15 93 395.54"/>
      </g>
    </g>
    <g id="moutain_left">
      <g>
        <polygon class="cls-13" points="718.67 394.27 751.33 351.09 757.67 431.61 718.67 394.27"/>
        <g>
          <polygon class="cls-14" points="721.42 298.35 805 338.49 761 263.14 721.42 298.35"/>
          <polygon class="cls-15" points="845 305.33 805 338.49 860.68 338.49 845 305.33"/>
          <polygon class="cls-16" points="860.68 338.49 878.33 375.81 827 338.49 860.68 338.49"/>
          <polygon class="cls-17" points="827 338.49 786 405.94 805 338.49 827 338.49"/>
          <polygon class="cls-18" points="721.42 298.35 751.33 351.09 721.42 391.4 721.42 298.35"/>
          <polygon class="cls-3" points="751.33 351.09 805 338.49 721.42 298.35 751.33 351.09"/>
          <polygon class="cls-19" points="751.33 351.09 786 405.94 805 338.49 751.33 351.09"/>
          <polygon class="cls-20" points="786 405.94 757.37 427.64 751.33 351.09 786 405.94"/>
          <path class="cls-13" d="M786,405.94l51.33,46.48s-70.91,5.75-74.12,3-16.54-21.63-16.54-21.63Z"/>
          <polygon class="cls-19" points="898 417.39 921 425.11 912 409.92 898 417.39"/>
          <polygon class="cls-21" points="786 405.94 837.33 397.93 834.59 449.93 786 405.94"/>
          <polygon class="cls-5" points="827 338.49 815.56 401.33 786 405.94 827 338.49"/>
          <polygon class="cls-22" points="837.33 397.93 827 338.49 815.56 401.33 837.33 397.93"/>
          <polygon class="cls-10" points="837.33 397.93 921 480.94 832.84 463.27 834.75 446.8 837.33 397.93"/>
          <polygon class="cls-23" points="837.33 397.93 878.33 375.81 827 338.49 837.33 397.93"/>
          <polygon class="cls-24" points="878.33 375.81 898 417.39 871.28 431.61 878.33 375.81"/>
          <polygon class="cls-19" points="871.28 431.61 837.33 397.93 878.33 375.81 871.28 431.61"/>
          <polygon class="cls-25" points="898 417.39 921 480.94 871.28 431.61 898 417.39"/>
          <polygon class="cls-26" points="936 414.29 921 425.11 989.88 483.27 936 414.29"/>
          <polygon class="cls-27" points="989.88 483.27 921 480.94 921 425.11 989.88 483.27"/>
          <polygon class="cls-28" points="898 417.39 921 425.11 921 480.94 898 417.39"/>
        </g>
      </g>
    </g>
    <g id="sun">
      <g>
        <path class="cls-29" d="M325.31,153a78.41,78.41,0,0,0,10.46-4.69l18.52-125a79.28,79.28,0,0,0-8.65-7.53Z"/>
        <path class="cls-30" d="M310.27,156.78a78.3,78.3,0,0,0,10.1-2.24l21-141.78a78.68,78.68,0,0,0-9-5.08Z"/>
        <path class="cls-31" d="M370.08,46.05,357.5,131a78.78,78.78,0,0,0,12.58-84.93Z"/>
        <path class="cls-32" d="M281.48,155.84a78.65,78.65,0,0,0,9.55,1.48L314.1,1.57A78.89,78.89,0,0,0,304.53.26Z"/>
        <path class="cls-33" d="M358.34,27.67,340.92,145.2a79.13,79.13,0,0,0,11-8.54L366.42,39A79,79,0,0,0,358.34,27.67Z"/>
        <path class="cls-34" d="M327.95,5.75a78.19,78.19,0,0,0-9.3-3.11l-23,155c.9,0,1.8.07,2.7.07,2.39,0,4.76-.12,7.1-.33Z"/>
        <path class="cls-35" d="M270.15,5.23a78.44,78.44,0,0,0-10.5,5L241.41,133.3a79.26,79.26,0,0,0,8.61,7.78Z"/>
        <path class="cls-36" d="M267.66,151.46a78.27,78.27,0,0,0,9.29,3.24L299.86,0c-.49,0-1,0-1.47,0A79.69,79.69,0,0,0,290,.44Z"/>
        <path class="cls-37" d="M237.78,28.43a78.91,78.91,0,0,0-12,81.14Z"/>
        <path class="cls-38" d="M237.38,128.77l17.1-115.42a79.19,79.19,0,0,0-11.1,9l-14,94.56A79,79,0,0,0,237.38,128.77Z"/>
        <path class="cls-39" d="M254.27,144.18a78.79,78.79,0,0,0,9,5.23l22-148.3A78.36,78.36,0,0,0,275.11,3.5Z"/>
      </g>
    </g>
    <g id="device">
      <g>
        <g>
          <rect class="cls-40" x="297.82" y="94.04" width="449" height="374.86" transform="translate(1044.63 562.95) rotate(180)"/>
          <polygon class="cls-41" points="313.6 129.12 724.61 129.12 723.32 443.51 312.31 443.51 313.6 129.12"/>
        </g>
        <path class="cls-42" d="M439.69,129.12V383.8s-6.61-81.34-29.84,0c0,43.17-6.85,23.39-8.85,0-3.25-38-11.89,0-11.89,0v59.71H312.64V129.12Z"/>
      </g>
      <g id="Calque_33" data-name="Calque 33">
        <rect class="cls-43" x="292.58" y="284.38" width="44.54" height="182.22"/>
      </g>
    </g>
    <g id="template_color">
      <g>
        <rect class="cls-2" x="674.84" y="149.42" width="24.66" height="19.19" rx="7.83" ry="7.83"/>
        <circle class="cls-2" cx="601.55" cy="407.19" r="25"/>
        <circle class="cls-2" cx="672.67" cy="407.19" r="25"/>
        <circle class="cls-2" cx="530.44" cy="407.19" r="25"/>
      </g>
    </g>
    <g id="template_grey">
      <g>
        <rect class="cls-44" x="450.6" y="184.11" width="116.59" height="116.59" rx="12" ry="12"/>
        <rect class="cls-44" x="506.72" y="324.72" width="195.44" height="5.96"/>
        <rect class="cls-44" x="506.72" y="339.72" width="195.44" height="5.96"/>
        <rect class="cls-44" x="506.72" y="353.98" width="195.44" height="5.96"/>
        <rect class="cls-44" x="506.72" y="366.93" width="195.44" height="5.96"/>
        <rect class="cls-44" x="576.56" y="185.96" width="120.23" height="5.87"/>
        <rect class="cls-44" x="576.56" y="275.78" width="120.23" height="4.63"/>
        <rect class="cls-44" x="576.56" y="284.56" width="120.23" height="4.63"/>
        <rect class="cls-44" x="576.56" y="294" width="120.23" height="4.63"/>
        <rect class="cls-44" x="576.56" y="204.94" width="72.73" height="58.79"/>
        <rect class="cls-44" x="659.82" y="204.94" width="36.88" height="4.78"/>
        <rect class="cls-44" x="659.82" y="213.88" width="36.88" height="4.78"/>
        <rect class="cls-44" x="659.82" y="222.9" width="36.88" height="4.78"/>
        <rect class="cls-44" x="447.05" y="149.42" width="209.41" height="19.19" rx="9.6" ry="9.6"/>
      </g>
    </g>
    <g id="send_right">
      <g>
        <path class="cls-42" d="M189.23,467.76H150c-20,2.79-34,1.82-50,0s-44,1.45-52,.31,10-29.42,36-21.28c0,0-.69-35.53,33.66-21.69,0,0,25.8-67.43,71.57-49.93s19.29,92.59,19.29,92.59Z"/>
        <polyline class="cls-45" points="183 373.27 150 467.76 166.5 467.82 187 467.82 187 374.38 183 373.27 183 373.27"/>
      </g>
    </g>
    <g id="sand_left">
      <g>
        <path class="cls-42" d="M538.89,503.11s74.78,17.5,98.78,12.05,55.51-8.55,66.76-5.5,29.24-7.16,43.24-6.55,81,8.48,89,6.54,79-1.06,84,0,27,0,27,0-47-74.51-115-59.22-90-56-114-60.87-70.34,2.86-86.17,24.51-42.83,48.65-55.83,58.65S525.74,500.23,538.89,503.11Z"/>
        <g>
          <path class="cls-46" d="M645.87,431.92l3.59,1.76c1.67.82,2.65,2.77,4.44,3.25,2.47.67,2.29,2.15-.58,5-1.08,1.07-3,.4-4.39-.1s-2.7-1-4-1.59a9.82,9.82,0,0,1-3.59-2.33c-.94-1.09.45-5.32,1.08-6.61s2.44-.37,3.46.64"/>
          <path class="cls-47" d="M647.73,429.31l3.59,1.76a10.62,10.62,0,0,1,4.44,3.25c1,1.55,1,4-.58,5-1.28.82-3,.4-4.39-.1s-2.7-1-4-1.59a9.82,9.82,0,0,1-3.59-2.33,3.79,3.79,0,0,1-.78-4c.63-1.29,4.29-3,5.32-2"/>
        </g>
        <g>
          <path class="cls-46" d="M657.43,415.23l2.19-.19c1-.09,2,.55,3,.27,1.35-.38,1.68.36,1.13,2.5-.21.81-1.28,1-2.09,1.19s-1.55.29-2.34.39a5.38,5.38,0,0,1-2.34-.08c-.75-.24-1.29-2.63-1.36-3.41s1-.86,1.81-.68"/>
          <path class="cls-47" d="M657.57,413.48l2.19-.19a5.82,5.82,0,0,1,3,.27,2,2,0,0,1,1.13,2.5,2.81,2.81,0,0,1-2.09,1.19q-1.16.24-2.34.39a5.38,5.38,0,0,1-2.34-.08,2.08,2.08,0,0,1-1.49-1.66c-.07-.79,1.17-2.61,1.94-2.43"/>
        </g>
        <g>
          <path class="cls-46" d="M678.51,401.78l3.78,1.31c1.76.61,3,2.42,4.81,2.69,2.53.37,2.53,1.86,0,5-.94,1.19-2.89.76-4.37.43s-2.8-.67-4.18-1.09a9.82,9.82,0,0,1-3.85-1.87c-1.07-1-.2-5.34.27-6.7s2.37-.66,3.51.22"/>
          <path class="cls-47" d="M680,399l3.78,1.31a10.62,10.62,0,0,1,4.81,2.69c1.21,1.41,1.46,3.82,0,5-1.17,1-2.89.76-4.37.43s-2.8-.67-4.18-1.09a9.82,9.82,0,0,1-3.85-1.87,3.79,3.79,0,0,1-1.26-3.87c.47-1.36,3.9-3.48,5-2.61"/>
        </g>
        <g>
          <path class="cls-46" d="M710.3,395.37l3.78,1.31c1.76.61,3,2.42,4.81,2.69,2.53.37,2.53,1.86,0,5-.94,1.19-2.89.76-4.37.43s-2.8-.67-4.18-1.09a9.82,9.82,0,0,1-3.85-1.87c-1.07-1-.2-5.34.27-6.7s2.37-.66,3.51.22"/>
          <path class="cls-47" d="M711.82,392.55l3.78,1.31a10.62,10.62,0,0,1,4.81,2.69c1.21,1.41,1.46,3.82,0,5-1.17,1-2.89.76-4.37.43s-2.8-.67-4.18-1.09A9.82,9.82,0,0,1,708,399a3.79,3.79,0,0,1-1.26-3.87c.47-1.36,3.9-3.48,5-2.61"/>
        </g>
        <g>
          <path class="cls-46" d="M706.93,412l2.27,1.5c1.05.7,1.55,2.09,2.72,2.58,1.61.67,1.36,1.65-.82,3.3-.82.63-2,0-3-.45s-1.73-.91-2.57-1.42a6.68,6.68,0,0,1-2.22-1.88c-.54-.81.76-3.55,1.3-4.37s1.67,0,2.28.73"/>
          <path class="cls-47" d="M708.41,410.39l2.27,1.5a7.22,7.22,0,0,1,2.72,2.58,2.49,2.49,0,0,1-.82,3.3,3.49,3.49,0,0,1-3-.45q-1.31-.66-2.57-1.42a6.68,6.68,0,0,1-2.22-1.88,2.58,2.58,0,0,1-.18-2.76c.54-.82,3.15-1.64,3.76-.87"/>
        </g>
        <g>
          <path class="cls-46" d="M693.65,417l3,.16c1.38.08,2.61,1.12,4,.93,1.88-.26,2.18.81,1,3.56-.43,1-1.9,1.13-3,1.2s-2.13.1-3.2.08a7.28,7.28,0,0,1-3.12-.55c-1-.47-1.24-3.76-1.18-4.83s1.56-1,2.55-.57"/>
          <path class="cls-47" d="M694.15,414.72l3,.16a7.88,7.88,0,0,1,4,.93c1.15.76,1.82,2.42,1,3.56a3.81,3.81,0,0,1-3,1.2q-1.6.1-3.2.08a7.28,7.28,0,0,1-3.12-.55,2.81,2.81,0,0,1-1.69-2.5c.06-1.07,2.07-3.28,3.06-2.89"/>
        </g>
        <g>
          <path class="cls-46" d="M634.65,451.82l4,.28c1.85.13,3.5,1.56,5.34,1.34,2.54-.31,2.93,1.13,1.34,4.82-.6,1.4-2.59,1.49-4.11,1.56s-2.88.08-4.32,0a9.82,9.82,0,0,1-4.2-.81c-1.28-.65-1.59-5.1-1.49-6.53s2.12-1.26,3.45-.71"/>
          <path class="cls-47" d="M635.38,448.69l4,.28a10.62,10.62,0,0,1,5.34,1.34c1.54,1,2.41,3.31,1.34,4.82-.88,1.24-2.59,1.49-4.11,1.56s-2.88.08-4.32,0a9.82,9.82,0,0,1-4.2-.81,3.79,3.79,0,0,1-2.22-3.41c.1-1.43,2.85-4.38,4.18-3.83"/>
        </g>
        <g>
          <path class="cls-46" d="M628.33,421l3.78,1.31c1.76.61,3,2.42,4.81,2.69,2.53.37,2.53,1.86,0,5-.94,1.19-2.89.76-4.37.43s-2.8-.67-4.18-1.09a9.82,9.82,0,0,1-3.85-1.87c-1.07-1-.2-5.34.27-6.7s2.37-.66,3.51.22"/>
          <path class="cls-47" d="M629.85,418.2l3.78,1.31a10.62,10.62,0,0,1,4.81,2.69c1.21,1.41,1.46,3.82,0,5-1.17,1-2.89.76-4.37.43s-2.8-.67-4.18-1.09a9.82,9.82,0,0,1-3.85-1.87,3.79,3.79,0,0,1-1.26-3.87c.47-1.36,3.9-3.48,5-2.61"/>
        </g>
        <g>
          <path class="cls-46" d="M645.8,404.86l2.43,2.32c1.13,1.08,1.42,2.89,2.73,3.73,1.81,1.16,1.29,2.3-1.72,3.84-1.14.58-2.47-.43-3.49-1.19s-1.91-1.49-2.81-2.29a8.25,8.25,0,0,1-2.28-2.77c-.48-1.11,1.71-4.15,2.54-5s2,.32,2.61,1.39"/>
          <path class="cls-47" d="M647.95,403.24l2.43,2.32a8.92,8.92,0,0,1,2.73,3.73c.43,1.5-.22,3.43-1.72,3.84-1.23.33-2.47-.43-3.49-1.19s-1.91-1.49-2.81-2.29a8.25,8.25,0,0,1-2.28-2.77,3.18,3.18,0,0,1,.39-3.4c.83-.88,4.19-1.3,4.76-.23"/>
        </g>
        <g>
          <path class="cls-46" d="M714.13,443.39l4,.45c1.85.21,3.43,1.71,5.28,1.57,2.55-.2,2.88,1.26,1.13,4.88-.66,1.37-2.65,1.37-4.17,1.38s-2.88,0-4.32-.14a9.82,9.82,0,0,1-4.16-1c-1.25-.71-1.37-5.16-1.21-6.59s2.17-1.17,3.48-.56"/>
          <path class="cls-47" d="M715,440.3l4,.45a10.62,10.62,0,0,1,5.28,1.57c1.49,1.11,2.26,3.41,1.13,4.88-.93,1.2-2.65,1.37-4.17,1.38s-2.88,0-4.32-.14a9.82,9.82,0,0,1-4.16-1,3.79,3.79,0,0,1-2.08-3.5c.16-1.43,3-4.25,4.34-3.65"/>
        </g>
        <g>
          <path class="cls-46" d="M676.81,429.42l3.79,2.12c1.76,1,2.69,3,4.61,3.7,2.64.92,2.34,2.38-1,4.91-1.25,1-3.25.1-4.78-.54s-2.87-1.28-4.26-2a11.21,11.21,0,0,1-3.75-2.69c-.95-1.18.86-5.27,1.64-6.5s2.68-.12,3.73,1"/>
          <path class="cls-47" d="M679,427l3.79,2.12c1.76,1,3.6,2,4.61,3.7s.8,4.07-1,4.91c-1.45.69-3.25.1-4.78-.54s-2.87-1.28-4.26-2a11.21,11.21,0,0,1-3.75-2.69,3.6,3.6,0,0,1-.56-4.07c.78-1.23,4.89-2.55,5.93-1.44"/>
        </g>
        <g>
          <path class="cls-46" d="M670.79,442.59l3.78,1.3c1.76.6,3,2.41,4.81,2.67,2.53.36,2.54,1.85,0,5-.94,1.19-2.89.77-4.37.45s-2.8-.66-4.18-1.07a9.82,9.82,0,0,1-3.85-1.86c-1.07-1-.22-5.34.25-6.7s2.37-.67,3.51.21"/>
          <path class="cls-47" d="M672.31,439.76l3.78,1.3a10.62,10.62,0,0,1,4.81,2.67c1.21,1.41,1.47,3.82,0,5-1.17,1-2.89.77-4.37.45s-2.8-.66-4.18-1.07a9.82,9.82,0,0,1-3.85-1.86,3.79,3.79,0,0,1-1.27-3.87c.47-1.36,3.89-3.49,5-2.62"/>
        </g>
        <g>
          <path class="cls-46" d="M630.09,469.41l3.23,2.36c1.5,1.1,2.13,3.18,3.81,4,2.31,1.09,1.88,2.52-1.43,4.8-1.25.86-3-.12-4.31-.86s-2.48-1.46-3.68-2.26a9.82,9.82,0,0,1-3.13-2.92c-.74-1.23,1.37-5.16,2.21-6.33s2.46.06,3.3,1.23"/>
          <path class="cls-47" d="M632.37,467.15l3.23,2.36a10.62,10.62,0,0,1,3.81,4c.74,1.7.28,4.08-1.43,4.8-1.4.58-3-.12-4.31-.86s-2.48-1.46-3.68-2.26a9.82,9.82,0,0,1-3.13-2.92,3.79,3.79,0,0,1-.07-4.07c.85-1.16,4.75-2.19,5.58-1"/>
        </g>
        <g>
          <path class="cls-46" d="M620,439.78l3.78,1.31c1.76.61,3,2.42,4.81,2.69,2.53.37,2.53,1.86,0,5-.94,1.19-2.89.76-4.37.43s-2.8-.67-4.18-1.09a9.82,9.82,0,0,1-3.85-1.87c-1.07-1-.2-5.34.27-6.7s2.37-.66,3.51.22"/>
          <path class="cls-47" d="M621.52,437l3.78,1.31a10.62,10.62,0,0,1,4.81,2.69c1.21,1.41,1.46,3.82,0,5-1.17,1-2.89.76-4.37.43s-2.8-.67-4.18-1.09a9.82,9.82,0,0,1-3.85-1.87,3.79,3.79,0,0,1-1.26-3.87c.47-1.36,3.9-3.48,5-2.61"/>
        </g>
        <g>
          <path class="cls-46" d="M697.88,450.55l3.31,2.25c1.54,1,2.23,3.11,3.94,3.85,2.35,1,2,2.45-1.28,4.84-1.22.9-3,0-4.34-.72s-2.53-1.38-3.75-2.14a9.82,9.82,0,0,1-3.22-2.81c-.78-1.21,1.2-5.2,2-6.39s2.46,0,3.34,1.12"/>
          <path class="cls-47" d="M700.09,448.22l3.31,2.25a10.62,10.62,0,0,1,3.94,3.85c.8,1.68.42,4.07-1.28,4.84-1.38.63-3,0-4.34-.72s-2.53-1.38-3.75-2.14a9.82,9.82,0,0,1-3.22-2.81,3.79,3.79,0,0,1-.2-4.07c.81-1.19,4.67-2.35,5.54-1.2"/>
        </g>
        <g>
          <path class="cls-46" d="M670.42,476.54l4,.4c1.85.19,3.45,1.67,5.3,1.5,2.55-.23,2.89,1.22,1.19,4.86-.64,1.38-2.64,1.41-4.15,1.43s-2.88,0-4.32-.09a9.82,9.82,0,0,1-4.17-.93c-1.26-.69-1.43-5.14-1.29-6.58s2.16-1.19,3.47-.6"/>
          <path class="cls-47" d="M671.25,473.44l4,.4a10.62,10.62,0,0,1,5.3,1.5c1.5,1.09,2.31,3.38,1.19,4.86-.91,1.21-2.64,1.41-4.15,1.43s-2.88,0-4.32-.09a9.82,9.82,0,0,1-4.17-.93,3.79,3.79,0,0,1-2.12-3.48c.14-1.43,3-4.29,4.3-3.7"/>
        </g>
        <g>
          <path class="cls-46" d="M756.28,462.36l2.09.92c1,.43,1.58,1.54,2.62,1.76,1.42.31,1.36,1.19-.18,2.94-.58.66-1.67.33-2.5.08s-1.56-.5-2.32-.8a5.5,5.5,0,0,1-2.1-1.25c-.57-.61.1-3.14.42-3.92s1.37-.3,2,.26"/>
          <path class="cls-47" d="M757.26,460.76l2.09.92a6,6,0,0,1,2.62,1.76,2.21,2.21,0,0,1-.18,2.94,2.83,2.83,0,0,1-2.5.08q-1.18-.35-2.32-.8a5.5,5.5,0,0,1-2.1-1.25,2.27,2.27,0,0,1-.56-2.32c.32-.78,2.35-1.89,3-1.33"/>
        </g>
        <g>
          <path class="cls-46" d="M768.73,453.46l1.86-.43c.87-.2,1.83.24,2.64-.12,1.11-.5,1.51.12,1.35,2.07-.06.74-1,1.06-1.63,1.31s-1.3.44-2,.63a4.61,4.61,0,0,1-2,.21c-.68-.12-1.5-2.16-1.68-2.84s.77-.88,1.46-.82"/>
          <path class="cls-47" d="M768.59,451.9l1.86-.43a5,5,0,0,1,2.64-.12,1.85,1.85,0,0,1,1.35,2.07,2.37,2.37,0,0,1-1.63,1.31q-1,.35-2,.63a4.61,4.61,0,0,1-2,.21,1.91,1.91,0,0,1-1.54-1.28c-.17-.68.63-2.45,1.32-2.38"/>
        </g>
        <g>
          <path class="cls-46" d="M589.49,471l2.19.76c1,.35,1.72,1.4,2.79,1.56,1.47.21,1.47,1.08,0,2.9-.55.69-1.68.44-2.54.25s-1.62-.39-2.42-.63a5.7,5.7,0,0,1-2.23-1.09c-.62-.56-.12-3.09.15-3.88s1.38-.38,2,.12"/>
          <path class="cls-47" d="M590.37,469.38l2.19.76a6.16,6.16,0,0,1,2.79,1.56,2.12,2.12,0,0,1,0,2.9,3,3,0,0,1-2.54.25q-1.22-.27-2.42-.63a5.7,5.7,0,0,1-2.23-1.09,2.2,2.2,0,0,1-.73-2.25c.27-.79,2.26-2,2.92-1.51"/>
        </g>
        <g>
          <path class="cls-46" d="M739.23,432.64l2.9.65c1.35.3,2.39,1.53,3.77,1.58,1.9.06,2,1.15.45,3.69-.6,1-2.07.8-3.19.69S741,439,740,438.79a7.28,7.28,0,0,1-3-1.06c-.87-.62-.6-3.92-.37-5s1.69-.69,2.61-.14"/>
          <path class="cls-47" d="M740.12,430.44l2.9.65a7.88,7.88,0,0,1,3.77,1.58c1,.94,1.4,2.69.45,3.69A3.81,3.81,0,0,1,744,437q-1.59-.16-3.17-.45a7.28,7.28,0,0,1-3-1.06,2.81,2.81,0,0,1-1.25-2.75c.23-1,2.58-2.9,3.49-2.35"/>
        </g>
      </g>
    </g>
    <g id="tablet">
      <g>
        <rect class="cls-40" x="183" y="272.94" width="149.16" height="230.4" transform="translate(515.16 776.28) rotate(180)"/>
        <g>
          <path class="cls-41" d="M308.16,431.24a33.78,33.78,0,0,1-21.23-2.3c-3.81-1.66-7.61-3.94-11.75-3.71-7.22.4-11.62,7.88-14.72,14.41s-7.55,14-14.78,14.33c-7.66.35-12.8-7.49-16.29-14.31L215.73,413c-3.26-6.36-6.53-12.76-8.68-19.57-6-19-3-39.56-5.91-59.24a98.25,98.25,0,0,0-7-24.49l-.09-.22V488.19H321.11V423.61A25.68,25.68,0,0,1,308.16,431.24Z"/>
          <path class="cls-42" d="M194.21,285.29v24.37l.09.22a98.25,98.25,0,0,1,7,24.49c2.93,19.68-.1,40.27,5.91,59.24,2.16,6.81,5.43,13.21,8.68,19.57l13.67,26.71c3.49,6.82,8.63,14.66,16.29,14.31,7.22-.33,11.68-7.8,14.78-14.33s7.5-14,14.72-14.41c4.15-.23,7.95,2.05,11.75,3.71a33.78,33.78,0,0,0,21.23,2.3,25.68,25.68,0,0,0,13-7.63V285.29Z"/>
        </g>
      </g>
    </g>
    <g id="flower">
      <g>
        <path class="cls-2" d="M296.22,501.69l2.84,19.41s2.25,3,10.75,3,10.75-3,10.75-3l2.84-19.41Z"/>
        <path class="cls-16" d="M309.81,512.25a40.48,40.48,0,0,0,12.28-1.61l1.27-8.67H296.26l1.27,8.67A40.48,40.48,0,0,0,309.81,512.25Z"/>
        <path class="cls-13" d="M325.28,506.16c0,2.27-6.93,4.11-15.48,4.11s-15.48-1.84-15.48-4.11l-.74-6.17H326Z"/>
        <ellipse class="cls-2" cx="309.81" cy="499.99" rx="16.22" ry="4.3"/>
        <ellipse cx="309.81" cy="499.91" rx="14.5" ry="3.25"/>
        <path class="cls-48" d="M296,500.88c1.85-1.32,7.34-2.27,13.84-2.27s12,1,13.84,2.27a1.29,1.29,0,0,0,.66-1c0-1.79-6.49-3.24-14.5-3.24s-14.5,1.45-14.5,3.24A1.29,1.29,0,0,0,296,500.88Z"/>
        <g>
          <path class="cls-49" d="M321.23,474.14c1-3.77-.23-6.74-1.61-10.1a19.56,19.56,0,0,1-1.09-10.46c.71-4.8,2.3-9.43.46-14.08-1.72-4.39-3.38-10.18-8.13-12s-8.11,2.58-8,6.78,2.46,8,1.27,12.12c-.9,3.39-2.09,7.41-.32,10.66,2.12,4,6.06,6.86,4.59,11.75-.58,1.75-1.53,3.24-1.73,5-.24,2.66,1.11,3.31,2.31,5.43,5.08,8.93-4.23,12.54-.57,22.35a.67.67,0,0,0,.66.44h0c.32,0,.48-.29.62-.58,3.94-8.06,6.77-7.81,10.57-15.85,1.17-2.47,2-5.51,0-6.65C318,477.64,320.62,476.52,321.23,474.14Z"/>
          <path class="cls-50" d="M310.85,477.46s.43,5,4.1,5.65"/>
          <path class="cls-50" d="M307.34,453.15s.26,5.61,5,7.13"/>
          <path class="cls-50" d="M317.81,445.52s-.22,5.84-4.81,6.72"/>
          <path class="cls-50" d="M317.67,463.76s1.1,6.39-2.61,8"/>
          <path class="cls-50" d="M316.7,485.24s0,5.82-5.85,6.4"/>
          <path class="cls-50" d="M309.39,437.4s.43,5.88,3.93,6.86"/>
          <path class="cls-50" d="M309.81,433.36c4,4,3.7,13,3.4,17.2-.25,3-1.87,10.1,0,15.24,2,5.44,3.75,11.24,1.5,18.72-1.57,5.22-6.73,6.84-5.71,16.37"/>
        </g>
        <g>
          <path class="cls-42" d="M333.19,472.18c-2.28-4.19-2.28-7-2-11.42s-1.14-10.66-6.73-11.68c-4.19-.76-7.59.94-9.15,4.24-2.57,5.45-.55,9.15,1.67,13.27,1.8,3.37.63,6.47,1,10s3.55,5.2.89,8.88c-1.14,1.52-2.67,1.78-3.81,3s-1.12,3.58-1.52,5.2c-1,4.09-5,3.51-5.2,7.66,0,.31.24.62.46.61s.39,0,.54-.24c.94-1.67,2.49-1.41,4.23-2.18,1.29-.57,1.69-2.16,4.79-2.54,4-.49,7.74,2.16,9.77-3.3.76-1.9.51-3.55.89-5.46.38-2.54,2-4.06,3.68-5.84C335.6,479.16,335.22,475.86,333.19,472.18Z"/>
          <g>
            <path class="cls-50" d="M318.77,459.16s2.66,4.71,6.39,5"/>
            <path class="cls-50" d="M321.56,473.77s-.21,8.49,2.51,10.29"/>
            <path class="cls-50" d="M330.37,468.08s-.31,7.3-4.88,8.58"/>
            <path class="cls-50" d="M326.64,489s-2.33,7-9,5.88"/>
            <path class="cls-50" d="M325.68,452.65s1.92,5.54-1,8.17"/>
            <path class="cls-50" d="M309,501.17c.62-2.28,3.82-2.66,4.78-3.29,10.73-7,14.93-20.5,9.62-43.39"/>
          </g>
          <path class="cls-10" d="M308.32,501.42c0,.31.24.62.46.61h0c.68-.51-.18-1.25.85-3.67A4.16,4.16,0,0,0,308.32,501.42Z"/>
        </g>
        <g>
          <path class="cls-45" d="M309.08,491.37c-1.26-2.7-.07-6.18-1.31-8.16-1.52-2.47-4-.59-7-4-2.47-2.85-.69-6.79-6.31-9.73-1.72-.9-3.71-.46-4.38,1.48s.47,4.42,1.06,6.18c.58,1.49,1.26,2.6,1,4.25v.05c-.32,1.27-1.17,1.95-.72,3.44.94,3.64,6.09,3.31,8.7,5.58,1.84,1.6.18,3.51,2,5.93s2.69-.21,5.9,5.47a.42.42,0,0,0,.58.16h0a.42.42,0,0,0,.21-.4C308.29,495.49,310.94,495.35,309.08,491.37Z"/>
          <g>
            <path class="cls-51" d="M291.81,473.84a4.6,4.6,0,0,0,3,3.69"/>
            <path class="cls-51" d="M293.29,481.8s2.67,3.09,6,1.84"/>
            <path class="cls-51" d="M303.19,482s2,3.33.52,4.87"/>
            <path class="cls-51" d="M306.28,488.26s1.19,4.11-.87,5.61"/>
            <path class="cls-51" d="M296.85,475.68s1.74,4.29.25,5.83"/>
            <path class="cls-51" d="M299.28,488s1.54,2.61,5.92,2.35"/>
            <path class="cls-51" d="M302.24,493.55s.43,2.64,4.72,3.25"/>
            <path class="cls-51" d="M308.29,501.85c-.17-5.59-3.15-6.06-3.05-9.37.08-2.58,0-5-3.15-6.91-5.39-3.22-7.64-6.59-8.73-13.72"/>
          </g>
        </g>
      </g>
    </g>
    <g id="picto">
      <g>
        <rect class="cls-41" x="272.44" y="384.44" width="38.73" height="38.73" rx="7.4" ry="7.4"/>
        <path class="cls-52" d="M301.19,399c0,5.42-9.82,19.82-9.82,19.82s-9.82-14.4-9.82-19.82a9.82,9.82,0,1,1,19.65,0Z"/>
        <circle class="cls-53" cx="291.37" cy="398.14" r="4.71"/>
      </g>
    </g>
    <g id="ladder">
      <g>
        <g>
          <g>
            <g>
              <path class="cls-1" d="M498.54,456c12,1.13,24,2.39,36,3.69l-18.19-181Z"/>
              <path class="cls-1" d="M513,500.69c-1.7,4.6,3.87,8.32,8.38,10.24a182.68,182.68,0,0,1,19.31,9.59l-3-30c-7.32.81-14.45,2.48-20.75,6.2C515.27,497.71,513.63,498.91,513,500.69Z"/>
              <path class="cls-1" d="M449.11,452.28c11.71.6,23.42,1.44,35.13,2.42l-17.69-176Z"/>
              <path class="cls-54" d="M540.66,520.52l2.2,1.28-3.16-31.46-2,.21Z"/>
              <path class="cls-54" d="M516.36,278.65l18.19,181,2.09.23L518.1,275.42l-1.75.48.27.07Z"/>
              <path class="cls-54" d="M534.55,459.68l3.1,30.87,2-.21-3.06-30.44Z"/>
              <path class="cls-54" d="M542.26,536.44l.62-.13c.46-.1.93-.23,1.4-.38l-1.42-14.13-2.2-1.28Z"/>
              <path class="cls-54" d="M466.56,278.66l17.69,176,2.09.18-18-179.46-1.74.48.27.07Z"/>
              <path class="cls-54" d="M491.46,526.49l1.48,14.77,2.07,0-2.52-25Z"/>
              <path class="cls-54" d="M490.42,516.19l1-10.3-5.12-51-2.09-.18Z"/>
              <path class="cls-55" d="M466.56,278.66l-.27-2.69.27-.07-1.74-.48L447.05,452.17l2.06.11Z"/>
              <path class="cls-55" d="M447.05,452.17l-8.84,88,2.06.14,8.85-88Z"/>
              <polygon class="cls-55" points="466.56 278.66 466.83 275.97 466.56 275.9 466.29 275.97 466.56 278.66"/>
              <path class="cls-55" d="M516.36,278.65l-.27-2.68.27-.07-1.75-.48L496.49,455.79l2.05.19Z"/>
              <path class="cls-55" d="M490.42,516.19l-2.53,25.14,2.07,0,1.49-14.82Z"/>
              <path class="cls-55" d="M492.49,516.19l6-60.2-2.05-.19-5,50.1Z"/>
              <polygon class="cls-55" points="516.36 278.65 516.63 275.97 516.36 275.9 516.09 275.97 516.36 278.65"/>
              <polygon class="cls-55" points="490.42 516.19 491.46 526.49 492.49 516.19 491.46 505.89 490.42 516.19"/>
            </g>
            <rect class="cls-55" x="459.59" y="331.38" width="50.25" height="3.38"/>
            <rect class="cls-55" x="456.04" y="367.43" width="50.25" height="2.17"/>
            <rect class="cls-55" x="452.48" y="403.47" width="50.25" height="3.38"/>
            <rect class="cls-55" x="448.92" y="439.52" width="50.25" height="3.38"/>
            <rect class="cls-55" x="445.36" y="475.56" width="50.25" height="3.38"/>
            <rect class="cls-55" x="441.81" y="511.61" width="50.25" height="3.38"/>
          </g>
          <g>
            <rect class="cls-54" x="473.07" y="331.38" width="50.25" height="3.38"/>
            <rect class="cls-54" x="476.63" y="366.22" width="50.25" height="3.38"/>
            <rect class="cls-54" x="480.19" y="403.47" width="50.25" height="3.38"/>
            <rect class="cls-54" x="483.75" y="439.52" width="50.25" height="3.38"/>
            <rect class="cls-54" x="487.3" y="475.56" width="50.25" height="3.38"/>
            <rect class="cls-54" x="490.86" y="511.61" width="50.25" height="3.38"/>
          </g>
        </g>
        <g>
          <polygon class="cls-54" points="461.63 271.31 469.06 275.25 469.06 282.44 472.02 280.31 471.19 273.75 464.5 270.4 461.63 271.31"/>
          <polygon class="cls-55" points="461.63 271.31 461.63 277.26 469.06 282.44 469.06 275.25 461.63 271.31"/>
        </g>
        <g>
          <polygon class="cls-54" points="509.18 267.55 516.61 271.5 516.61 278.68 519.57 276.55 518.73 269.99 512.05 266.64 509.18 267.55"/>
          <polygon class="cls-55" points="509.18 267.55 509.18 273.5 516.61 278.68 516.61 271.5 509.18 267.55"/>
        </g>
      </g>
    </g>
    <g id="men">
      <g>
        <g>
          <path d="M489.76,346.92l-2.91.11-41.76-149,.29-.12-.33-1.16s-6,1.73-8.33,2.5c-1.93.65-3.64-6.13-3.64-6.59,0-.27.88-.8,1.57-1.17.06-2.16.8-3.86,1.71-3.86s1.71,1.87,1.71,4.18-.77,4.17-1.71,4.17c-.74,0-1.37-1.14-1.61-2.74l-.68.34s.82,5.09,2.9,5c.46,0,5.54-1.5,5.54-1.5l2.62-1,.65-.07.44,1.56.59-.24,24.9,87.12Z"/>
          <path class="cls-42" d="M436.36,196s11.71-1.92,13-3c1.75-1.41,1.32-6.18.51-6.86-1.08-.91-13.54,1.49-13.54,1.49S439.25,192.47,436.36,196Z"/>
        </g>
        <g>
          <path d="M462.78,366.81s.45.75,3.89,1,5.6.75,8.65,0a32.44,32.44,0,0,1,6.79-1,7.27,7.27,0,0,0,2.64-.5c-.07-3.07-1.18-4.81-1.26-6-.37-5.15-.78-2.44-.8-3.19s-6.41,0-7.37-.41-2.2,2.86-5.08,4.11-6.8,2.75-7.46,3.25S460.61,366,462.78,366.81Z"/>
          <path d="M506.61,366.06s.81,3.25.11,5.25-1.17,3.67-2.27,3.83a8.65,8.65,0,0,1-4.09-1c-1.62-.67-1.5,0-2.67-2.33s-1.93-3-3.38-3.6-.4-1.4-.4-1.4.06.5,1.27-1.5,2.28-1,2.28-1Z"/>
          <g>
            <path d="M476.79,288.77s-1.65,4.21-1.92,5.42a11.58,11.58,0,0,1-1.3,2.83l-.49,1.79a4.74,4.74,0,0,1-1.47-2.38c-.45-1.61-2.32-3.9-.76-5.37,2.26-2.13,2.86-7.77,3.31-7.13S476.79,288.77,476.79,288.77Z"/>
            <path class="cls-2" d="M475.12,296.4c1-.15-6.76,12.9-6.76,12.9s-5.25,5.25-5.25,9.25-.75,6,0,8a103.9,103.9,0,0,0,5.65,13c3.35,6.5,6.18,8.25,5.89,13l-.29,4.75s6.14,2.75,7.95,1.25,1.95-8.75,0-14.25-4.45-12.25-5.7-14.75-3.43-2.75-2-4.25,10.21-10.25,12.71-13.25-.5-6.75,1.25,1.75.11,12,2.93,16.25,2.07,3.5,3.32,8a62.39,62.39,0,0,1,2.2,14.25c0,4-1,10.75,0,11.75s9.55,2,9.55,2,.25-9.25,0-16.5a112.34,112.34,0,0,0-1.31-16.25c-.94-6-1.44-3.5-2.19-9.75s-1.75-8-1-11.75.25-6.48,1-9.48-20.8-7-20.8-7Z"/>
            <path d="M461,228c-.13.41-2.13-1.39-3-2.33a7.49,7.49,0,0,1-2.48-3.76,12.93,12.93,0,0,1-.65-2.52c-.12-.49-1.25-1.74-1.08,0,.4,4,.65,5.6.65,5.6s-1.83,1.38-1.65,2.31c.09.49.21,1.19.34,1.77a4.32,4.32,0,0,0,2.25,3.08c1.57.61,3.3,2.05,4,1.65a4.07,4.07,0,0,1,2.25,0Z"/>
            <path class="cls-42" d="M488.33,235.31s-1.61,3.92-6.3,1.92-4.9-3.57-10.7-5.24-7-3.42-10-4.74h0c-1,1.5-1.36,7.05-1.36,7.05l1.6.88c4.4,1.8,12.14,6.79,12.79,7.14.21.12,3.94,3.33,6.88,4.33,3.13,1.06,1.55,2.4,1.45,4.36-.12,2.45-.55,19.82-1.69,20.92s-.75,4.59-.75,4.59-1.92-2.94-1.43,0-1.25,8.2-1.25,8.2h5.5l5.25-44Z"/>
            <path class="cls-49" d="M503.61,301.31c-3,3.25-13.25-2.25-17.59-2.75s-2.41.75-5.16,1.5-7.25-4.25-6-5.75,7.45-21.55,7.45-21.55c-3.06-1.54,5-34.7,5-34.7v-3.25s4.29-3.27,7.43-5.15,4.36-3.62,7.09-3.24,3,.64,4.51,1.64,3.72.46,4.22,4.1,1.5,7.15,0,8.65a2.17,2.17,0,0,1-1.31.43l.06,0C516.35,270.61,506.61,298.06,503.61,301.31Z"/>
            <path class="cls-42" d="M473.34,284.24l.65,3.18s1.73,3.47,3.49,2.09,10.66-13.93,14.65-20.62,6.91-15.71,6.52-21.5-.17-5.86-1.66-8.08-6.55-2.48-8.34.69A26,26,0,0,0,485,251.72c-.12,4.36-.62,11.87-1.1,14.52s-4.86,7.38-6.22,10.72A38.86,38.86,0,0,1,473.34,284.24Z"/>
            <path d="M489.86,215.31a5.62,5.62,0,0,0-1.33,2.67c-.33,1.67,0,1.67-1.17,2.5s-1.62.53-1.17,2c.38,1.21,1.17.67.5,2.17s.16,1.92-.21,3.63-1,1.88.38,2.71a9.07,9.07,0,0,0,2.9,1.17c.6.17,1.1-.67,2.6-1.33s3-1.4,3.83-1.83.5-4.33.83-6.5-1.67-6.67-2.67-8a7.14,7.14,0,0,0-3-2l-1.45,2.83"/>
            <path class="cls-2" d="M489.86,215.31s1.5-1.67,2.17,0-2,8,0,8,3.67-1.5,4.17,0-.33,5,0,5.67,1.67-2,4.17-2.33,2.45-.27,4-1.67c2-1.83,1.68-4.83,1.74-6.67s1-1.65-.8-3.74a13.21,13.21,0,0,0-4.94-3.76c-1.5-.67-6.83-1.67-8.17-.67S489.36,212.47,489.86,215.31Z"/>
          </g>
        </g>
      </g>
    </g>
    <g id="girl">
      <g>
        <g>
          <path class="cls-56" d="M318.17,271.27c-.8,2-.27,3.15-.4,5.38s-.86,1.23-.68,2.84.25,2.47.68,5.2-.24,2.66,0,4.14-.15,1.35,0,3.53c.13,1.78-.05,2.42-.32,2.58.17.21.3.45.2.62s.4.93.4.93v.81l-.58.78-4.09-.78a.93.93,0,0,1-.14-1.37c.18-.23.28-.38.36-.49l0,0h0l0,0-.24.12a24.94,24.94,0,0,1,0-3.08c.13-.43,0,0,.06-.62s-.12-.31-.61-.93,0,0-.13-.62.06-.49,0-1.6A8.3,8.3,0,0,0,312,286c-.49-1.61-.12-.87-.31-2.36a13.45,13.45,0,0,0-.37-2.84,8.88,8.88,0,0,1-.31-3.24c0-1.76-.67-.46-.67-4.61,0,0-1.38-.08-1.24.68a4.91,4.91,0,0,1,.46,1.79c.19,1.48.09.28.52,2.14A12.79,12.79,0,0,1,310,282c-.06.86-.06,3.4-.06,3.4l.38,1.79a9,9,0,0,0-.5,1c-.07.25-.07,1.55-.28,2.73s.4,1.17.31,2.35.49,1.78,0,1.59h0c.39.27.39.37.39.37s.83.88.71,1.18a5.36,5.36,0,0,0,.22,1.59,23.48,23.48,0,0,0-1.61-2.15c-.22-.11-1.39.58-1.39.58L306,298.72l.13-1.42.39-.67c-.37.38-.39.44-.34.24s-.5-1.07-.81-1.69,0-2.76-.68-3.94-.8-3.58-.93-5.19.31-3.16.19-4.46.94-2-.43-4.7a23,23,0,0,1-2.35-4.08,15,15,0,0,1-.74-5.63c0-.78.49-.31.49-.31s1.42-1.48,1.54-1.73,5.57-.62,9.9-.68,5.58,2.12,5.84,2.18S319,269.29,318.17,271.27Z"/>
          <polygon class="cls-56" points="313.24 297.74 313.38 297.3 314.25 298.72 313.75 300.12 312.84 300.7 313.24 299.53 313.24 297.74"/>
        </g>
        <g>
          <path d="M307.14,302.07s2.17.43,2.69,0,.77-.37.59-1.05-.62-.87-.25-1.61,1.36-.37.8-2-.31-2-1.14-2.16a2.81,2.81,0,0,0-2.69,1.28c-.56,1-1.52,2.12-1,2.8s.73.37.85,1.18S307.14,302.07,307.14,302.07Z"/>
          <path d="M313,301a.91.91,0,0,0,.74.43c.49,0,2.16.31,2.41,0s.19-.49.43-1.05.37-.25.68-.93,1.36-2.1.49-3.28-.68-1.42-1.61-1.55-1.36-.17-1.92.54-1.18,1.44-.8,2.12.68,1,.49,1.42-.49,1.18-.49,1.18S312.54,300.65,313,301Z"/>
        </g>
        <path d="M321,273.55a1.64,1.64,0,0,0-.37.81c-.11.55-.22.63,0,1a1.85,1.85,0,0,0,.55.63c.22.14.27.27.38,0s.22-.14,0-.55,0-.54.13-.57.29-.31.29.19.19.74,0,1.29-.25,1-.33,1.24-.33.44-.08.66.05.11.25.22,0-.16.25.05.19.19.49,0,.33-.49.47-.44,0,.3.27.22a2,2,0,0,0,1-.71c.25-.38,0-.33.27-.25s.5,0,.71-.49c.33-.74.53-.93.5-1.62s.05-.6-.25-.93-.43-.23-.85-.7a1.84,1.84,0,0,0-1.31-.7c-.54-.06-1.3-.42-1.52-.23S321,273.55,321,273.55Z"/>
        <path d="M296.11,270.73a1.09,1.09,0,0,0-1.06.14,11.87,11.87,0,0,1-2,.95c-.29.16-.82.33-.87.95s-.29.78.21,1.24a5.38,5.38,0,0,0,.82.74c.33.21.58.12,1.07.37a4,4,0,0,1,.78.49c.37.25.66.29.74.25s.29,0,.08-1.11-1.15-1.48-.58-1.73.62-.26,1-.44.12-.3,0,.28-.7.46-.37.77a.64.64,0,0,0,1,0c.41-.4.49-.23.74-.85s.4-.41,0-1a6.39,6.39,0,0,0-.91-1.09Z"/>
        <path class="cls-49" d="M324.39,273.12s-1.91-.74-2.78,0-.62.43-.62.43a4,4,0,0,0,.25-2.16,11.88,11.88,0,0,0-.7-3.71,33.48,33.48,0,0,1-1.9-5.51c-.12-.8-.07-2-.47-2.29a6,6,0,0,1-.79-1.08,1.48,1.48,0,0,1-.35,0l1.14,5,.43,4.84-.43-.32a26.5,26.5,0,0,0-6.74-.84c-3.53.07-6.77-1.82-8.56-1.39s-2.44,3-2.44,3l0-2.62-.38-.74.38-.68.71-3.63c-.38,1-.65,2-.65,2l-1.61,4.14L298,270a5.37,5.37,0,0,1-.24,1.29c-.13.07-2.29-1-2.66-.49s-.44.12-.44.12l.25-.8-.25-.93.62-.31s1.3-6.35,1.86-7.83a4.87,4.87,0,0,0,.37-2.44s.62-5.51,1.42-7.49l.37-2.83s1.18-3.68,2.42-4.46,1.52-1.14,2.28-1a3.43,3.43,0,0,1,1.61,1l.45,2.41v.16l.31-.72.33.05s7.91,1.75,9.92,2.35v-.79s-.25-3-.25-3.21.22-1.55.25-1.18a4.21,4.21,0,0,1,2.54,1c.74.93,2,5.56,2.1,10.7a27.22,27.22,0,0,0,1.42,8.54c.13.62,1.3,5.26,1.3,5.26a19.21,19.21,0,0,1,.19,2.1,5.35,5.35,0,0,0,.18,1.18,2.86,2.86,0,0,0,0,.74A2.45,2.45,0,0,1,324.39,273.12Z"/>
        <g>
          <path d="M307.6,241.26a6.07,6.07,0,0,0,.75,2.27c.49.54,1,1.11,1.36,1.4a4.77,4.77,0,0,0,1,.58,1.91,1.91,0,0,0,1.15.08,1.76,1.76,0,0,0,.79-.54c.24-.25.69-.78.94-1a2.14,2.14,0,0,0,.82-1.07c.21-.62,1.06-1.48.8-2.35s-.22-1.69-.8-2.14a14.41,14.41,0,0,0-3.55-.87,14.56,14.56,0,0,0-2.35.66,17.13,17.13,0,0,0-.91,1.77C307.6,240.23,307.6,241.26,307.6,241.26Z"/>
          <path d="M307.75,242.75a9.69,9.69,0,0,1-.06,2.67c-.21.82,0,1-.3,1.36s1.82,3.71,2.78,4.25,2.7-3.11,3.34-4.67a17.91,17.91,0,0,0,1.07-2.78c-.06-.14-.22-1.08-.22-1.08A9.52,9.52,0,0,0,313,242C312.79,242,307.75,242.75,307.75,242.75Z"/>
        </g>
        <path class="cls-56" d="M317.8,253.88c.11-1.2.61-1,.24-2.14s-1.07-2.56-.79-3.76.75-.41.38-1.81-1.08-2.64-1-3.63a12.58,12.58,0,0,0,.12-3.55,11.28,11.28,0,0,0-.82-3.42c-.54-.91-1-2.31-1.7-2.72s-2.51-1.4-3.54-1.07a7.16,7.16,0,0,0-2.93,1.6,9.41,9.41,0,0,0-1.9,3.39c-.28,1-.45,2.59-.57,3.21a2.48,2.48,0,0,1-1,1.73c-.66.46-1.12.71-1.57,1s-.66.33.21.17.78-.83,1.28-.29.53-.25.61,1,.58.74.42,1.86a21.46,21.46,0,0,0-.5,3,9.11,9.11,0,0,1-.2,3,4.94,4.94,0,0,0-.09,2.88c.25,1.12.54,1,.29,1.86s.21,1,.08,2.18.5.29,0,1.37-.57,1.85,0,.74.75-1,.79-1.49.61-1.94.41-.62,0,1.24-.21,1.65,0,1.86.46-.37.94-1.89.49-3.75a12.87,12.87,0,0,1-.5-2.45,2.55,2.55,0,0,0,.62-.93,4.24,4.24,0,0,0,.33-1.44,13.91,13.91,0,0,0,.29-2.36,10.44,10.44,0,0,0,0-1.6c.09-.91.17-.75.25-2.15s.22-.5.3-1.73,0-.7,0-.87-.25-1.06-.3-1.24a7,7,0,0,0,.53-.69c.62-1,.37-1.65,1.32-1.78s1.65.13,2.1-.12l.45-.25s1.9.41,2.27,1.24a2.93,2.93,0,0,1,.33,2.06,10.17,10.17,0,0,0-.42,1.67,7,7,0,0,1-1.23,1.92s-.86,2.68-.37,3.54.62,1,.91,1.49.16.29,0,1,.29.33,0,1.57a20.05,20.05,0,0,1-.53,2.06,8.82,8.82,0,0,0-.53,3.42c.19.87.41.54.53,1.49s.74.91.36,1.24.21.65.54.28.78-.85.49-.28-.16.69.29.24.75-.86.9-1,.67-1.36.67-.41c0,1.19.08,1.36-.21,1.89s.33-.11.71-.69a6.24,6.24,0,0,0,.43-.76.48.48,0,0,1-.06.18c-.13.2.64-.35.42-1.59,0,0,0,0,0-.06s0-.15,0-.22a.14.14,0,0,0,0-.07c-.23-.92-.47-.64-.47-1.69s-.12-1.61.13-2S317.68,255.08,317.8,253.88Zm-.55,4c-.36-.45-.78-.85-.7-1.41.37.78.25.08.54,1C317.15,257.61,317.21,257.74,317.25,257.85Z"/>
      </g>
    </g>
    <g id="cloud">
      <path class="cls-44" d="M805.62,131.47a17.7,17.7,0,0,1-4.16,11.42c-.89,1.06-1.84.61-3,.61l-96.75.09v-1.78l2.6-.09a20.87,20.87,0,0,1-1.12-6.78,21.21,21.21,0,0,1,32.28-18.1,27.87,27.87,0,0,1,48.56-2.7,17.47,17.47,0,0,1,3.85-.42A17.75,17.75,0,0,1,805.62,131.47Z"/>
      <path class="cls-44" d="M230.29,152.25a16.89,16.89,0,0,1-4,10.9c-.85,1-1.75.58-2.87.58l-92.34.09v-1.7l2.48-.09a19.92,19.92,0,0,1-1.07-6.47,20.24,20.24,0,0,1,30.81-17.27,26.6,26.6,0,0,1,46.34-2.58,16.67,16.67,0,0,1,3.67-.4A16.94,16.94,0,0,1,230.29,152.25Z"/>
      <path class="cls-44" d="M282.47,171.6a6.63,6.63,0,0,1-1.56,4.28c-.33.4-.69.23-1.13.23l-36.23,0v-.67l1,0a7.81,7.81,0,0,1-.42-2.54,7.94,7.94,0,0,1,12.09-6.78,10.44,10.44,0,0,1,18.18-1,6.54,6.54,0,0,1,1.44-.16A6.65,6.65,0,0,1,282.47,171.6Z"/>
      <path class="cls-44" d="M836.1,84.22a10.59,10.59,0,0,1-2.49,6.83c-.53.63-1.1.37-1.8.37l-57.91.06V90.41l1.56-.06a12.49,12.49,0,0,1-.67-4.06,12.69,12.69,0,0,1,19.32-10.83,16.68,16.68,0,0,1,29.06-1.62,10.46,10.46,0,0,1,2.3-.25A10.63,10.63,0,0,1,836.1,84.22Z"/>
    </g>
  </g>
</svg>
