<svg xmlns="http://www.w3.org/2000/svg" width="100" height="26.46mm" viewBox="0 0 75 75">
  <defs>
    <style>
      .cls-1 {
        fill: #d8d8d8;
      }
    </style>
  </defs>
  <title>logo_hl</title>
  <g id="Calque_2" data-name="Calque 2">
    <g id="Calque_4" data-name="Calque 4">
      <path class="cls-1" d="M59.36,40.41A7.66,7.66,0,0,0,61,42.81a7.77,7.77,0,0,0,2.37,1.62,7.07,7.07,0,0,0,2.91.6h8a37.53,37.53,0,1,0-2.79,8.4H66.26a15.46,15.46,0,0,1-6.21-1.26A16.18,16.18,0,0,1,55,48.75a15.78,15.78,0,0,1-3.39-5.07,15.46,15.46,0,0,1-.57-1.6V53.43h-8.4v-16a7.11,7.11,0,0,0-.6-2.91,7.82,7.82,0,0,0-1.62-2.37A7.72,7.72,0,0,0,38,30.57a7.32,7.32,0,0,0-2.94-.6,7.1,7.1,0,0,0-2.91.6,7.8,7.8,0,0,0-2.37,1.62,7.69,7.69,0,0,0-1.62,2.4,7.29,7.29,0,0,0-.6,2.94v15.9h-8.4V13.17h8.4V23.43a15.45,15.45,0,0,1,7.5-1.86,15.89,15.89,0,0,1,11.28,4.62,16.21,16.21,0,0,1,3.42,5.07,15.17,15.17,0,0,1,.6,1.67V13.17h8.4v24.3A7.28,7.28,0,0,0,59.36,40.41ZM33.05,35.49a2.71,2.71,0,0,1,2-.78,2.89,2.89,0,0,1,2,.78,2.59,2.59,0,0,1,.84,2,2.71,2.71,0,0,1-.84,2,2.78,2.78,0,0,1-2,.84,2.61,2.61,0,0,1-2-.84,2.76,2.76,0,0,1-.81-2A2.64,2.64,0,0,1,33.05,35.49Z"/>
    </g>
  </g>
</svg>
